<?xml version="1.0" encoding="UTF-8"?><svg id="a" xmlns="http://www.w3.org/2000/svg" viewBox="0 0 2000 2000"><defs><style>.b{fill:#fff;}.c{fill:#00b034;}.d,.e{fill:none;}.e{stroke:#fff;stroke-miterlimit:10;stroke-width:50px;}</style></defs><path class="c" d="M1058.53,590.56h0c15.26,8.08,20.08,26.23,10.58,39.86l-410.88,589.96c-11.65,16.73-37.96,17.59-50.82,1.62-14.65-18.2-22.93-40.5-22.93-63.88v-316.33c0-38.39,22.32-73.88,58.53-93.07l298.44-158.16c36.21-19.19,80.85-19.19,117.06,0Z"/><path class="c" d="M941.47,1409.36h0c-15.26-8.08-20.08-26.23-10.58-39.86l386.25-554.61c28.56-41,97.82-22.87,98.36,25.8,0,.37,0,.73,0,1.1v316.33c0,38.39-22.32,73.88-58.53,93.07l-298.44,158.16c-36.21,19.19-80.85,19.19-117.06,0Z"/><path class="c" d="M565.21,1353.95l-212.45,305.05c-20.27,29.1-55.28,46.71-92.89,46.71H110.27c-60.9,0-110.27-45.35-110.27-101.3V104.17C0,48.22,49.37,2.87,110.27,2.87H1505.94l-346.14,497.35-82.12-43.53c-48.07-25.47-107.28-25.47-155.35,0l-396.01,209.89c-48.06,25.47-77.68,72.55-77.68,123.5v419.75c0,50.95,29.62,98.03,77.68,123.5l38.89,20.61Z"/><path class="c" d="M2000,395.51V1895.76c0,55.94-49.37,101.3-110.27,101.3H494.06l346.14-497.35,82.12,43.53c48.07,25.47,107.28,25.47,155.35,0l396.01-209.89c48.06-25.47,77.68-72.55,77.68-123.5v-419.75c0-50.95-29.62-98.03-77.68-123.5l-38.89-20.61,212.45-305.05c20.27-29.1,55.28-46.71,92.89-46.71h149.6c60.9,0,110.27,45.35,110.27,101.3Z"/><polygon class="d" points="383.55 1696.72 541.19 1696.72 541.19 1983.99 501.74 2045.65 259.47 1890.66 383.55 1696.72"/><polygon class="d" points="1740.53 109.34 1616.45 303.28 1458.81 303.28 1458.81 16.01 1498.26 -45.65 1740.53 109.34"/><path class="d" d="M1429.56,670.89l-35.27-20.35,222.16-347.26h-157.64V16.01l-313.9,490.65-74.47-42.97c-43.59-25.14-97.29-25.14-140.88,0l-359.12,207.2c-43.58,25.14-70.44,71.62-70.44,121.92v414.38c0,50.3,26.86,96.78,70.44,121.92l35.27,20.35-222.16,347.26h157.64v287.27l313.9-490.65,74.47,42.97c43.59,25.14,97.29,25.14,140.88,0l359.12-207.2c43.58-25.14,70.44-71.62,70.44-121.92v-414.38c0-50.3-26.86-96.78-70.44-121.92Zm-806.36,485.25v-312.28c0-37.9,20.24-72.93,53.08-91.88l270.64-156.14c32.84-18.94,73.32-18.94,106.16,0l25.4,14.65-406.28,635.05c-30.43-19.42-49-53.1-49-89.4Zm753.6,0c0,37.9-20.24,72.93-53.08,91.88l-270.64,156.14c-32.84,18.94-73.32,18.94-106.16,0l-25.4-14.65,406.28-635.05c30.43,19.42,49,53.1,49,89.4v312.28Z"/><path class="e" d="M1455.48,656.7l-370.96-196.74c-52.86-28.04-116.19-28.04-169.05,0l-370.96,196.74c-58.99,31.29-95.87,92.6-95.87,159.37v367.79c0,66.77,36.88,128.09,95.87,159.37l370.96,196.74c52.86,28.04,116.19,28.04,169.05,0l370.96-196.74c58.99-31.29,95.87-92.6,95.87-159.37v-367.79c0-66.77-36.88-128.09-95.87-159.37Z"/><g><path class="b" d="M176.95,90.54h-54v-17.8H252.28v17.8h-54v122.2h-21.34V90.54Z"/><path class="b" d="M272.53,72.74h21.34v59.8h83.83v-59.8h21.34V212.74h-21.34v-62.2h-83.83v62.2h-21.34V72.74Z"/><path class="b" d="M497.43,215.54c-36.8,0-64.01-16.2-64.01-43.6v-57.8c0-27.6,27.43-44.2,64.23-44.2s63.79,16.2,63.79,43.8v34h-106.69v21.6c0,19.2,18.07,28.2,42.67,28.2s42.89-8,42.89-26.2v-3.8h21.12v6.4c0,26.4-27.22,41.6-64.01,41.6Zm-42.67-85.2h85.35v-14.2c0-19.2-17.85-28.2-42.46-28.2s-42.89,9.4-42.89,28.6v13.8Z"/><path class="b" d="M658.98,114.34c0-27.6,29.39-44.4,66.19-44.4s65.75,16.8,65.75,44.4v56.8c0,27.4-29.39,44.4-65.75,44.4s-66.19-17-66.19-44.4v-56.8Zm21.34,54c0,19.2,20.03,29.2,44.85,29.2s44.42-10,44.42-29.2v-51.2c0-19.2-19.81-29.2-44.42-29.2s-44.85,10-44.85,29.2v51.2Z"/><path class="b" d="M825.53,72.74h21.34v122.2h89.49v17.8h-110.82V72.74Z"/><path class="b" d="M956.6,72.74h67.06c36.8,0,59.44,17.2,59.44,44.4v51.2c0,27.2-22.64,44.4-59.44,44.4h-67.06V72.74Zm67.06,122.2c24.6,0,38.1-10.2,38.1-29.2v-46c0-19-13.5-29-38.1-29h-45.72v104.2h45.72Z"/></g><g><path class="b" d="M705.04,1848.57c0-27.2,26.56-44.4,63.14-44.4s62.71,16.4,62.71,38.8v8.8h-21.12v-6.2c0-14.2-16.77-23.4-41.59-23.4s-41.8,10.2-41.8,29.2v51.2c0,19,17.2,29.2,41.8,29.2s41.59-9.2,41.59-23.6v-7.8h21.12v10.6c0,22.4-26.13,38.8-62.71,38.8s-63.14-17.4-63.14-44.4v-56.8Z"/><path class="b" d="M969.58,1946.97l-39.63-45.2h-43.98v45.2h-21.34v-140h67.06c36.58,0,59.44,15.6,59.44,42.6v9.4c0,21-13.5,35.2-36.8,40.2l42.46,47.8h-27.22Zm-83.61-63h45.72c24.6,0,38.1-8.6,38.1-27.6v-4.2c0-18.8-13.5-27.2-38.1-27.2h-45.72v59Z"/><path class="b" d="M1076.48,1948.97c-33.53,0-60.96-11.2-60.96-34.8v-10.6c0-25.2,26.13-34.4,59.88-34.4,13.28,0,32.44,2.4,47.03,5.2v-23c0-19-16.77-29.2-41.8-29.2s-41.37,9.2-41.37,23.4v5.2h-20.9v-7.8c0-22.4,25.26-38.8,62.27-38.8s63.14,17.2,63.14,44.4v60.6c0,26.6-32.44,39.8-67.28,39.8Zm.22-18c24.6,0,45.72-7,45.72-25v-15c-13.72-2.6-33.96-4.2-48.55-4.2-22.86,0-37.01,5.2-37.01,18.6v7.6c0,13.6,20.03,18,39.84,18Z"/><path class="b" d="M1286.36,1824.97h-48.77c-24.6,0-38.1,10-38.1,29v17.6h72.72v17.8h-72.72v57.6h-21.34v-95.6c0-27.2,22.86-44.4,59.44-44.4h48.77v18Z"/><path class="b" d="M1349.72,1824.77h-54v-17.8h129.33v17.8h-54v122.2h-21.34v-122.2Z"/><path class="b" d="M1500.6,1949.77c-36.79,0-64.01-16.2-64.01-43.6v-57.8c0-27.6,27.43-44.2,64.23-44.2s63.79,16.2,63.79,43.8v34h-106.69v21.6c0,19.2,18.07,28.2,42.67,28.2s42.89-8,42.89-26.2v-3.8h21.12v6.4c0,26.4-27.22,41.6-64.01,41.6Zm-42.67-85.2h85.35v-14.2c0-19.2-17.85-28.2-42.46-28.2s-42.89,9.4-42.89,28.6v13.8Z"/><path class="b" d="M1703.74,1946.97l-39.63-45.2h-43.98v45.2h-21.34v-140h67.06c36.58,0,59.44,15.6,59.44,42.6v9.4c0,21-13.5,35.2-36.8,40.2l42.46,47.8h-27.21Zm-83.61-63h45.72c24.6,0,38.1-8.6,38.1-27.6v-4.2c0-18.8-13.5-27.2-38.1-27.2h-45.72v59Z"/><path class="b" d="M1751.41,1901.37h21.34v2.2c0,13.4,15.02,28,45.72,28,28.09,0,41.8-9.4,41.8-22.8v-1.6c0-14-17.42-19.2-42.89-20.8-32.01-2.2-62.05-10-62.05-38.8v-4c0-22.6,18.72-39.2,60.31-39.2s62.05,20.8,62.05,43.2v4.8h-21.34v-2.2c0-13.4-9.8-27.8-40.71-27.8-27,0-38.76,9.6-38.76,21.4v1.6c0,17,18.94,20.4,43.76,22.2,29.39,2.2,61.18,9.6,61.18,37.2v5c0,24-21.34,40-63.36,40s-67.06-19.4-67.06-43.8v-4.6Z"/></g></svg>